<?xml version="1.0" standalone="no"?><!DOCTYPE svg PUBLIC "-//W3C//DTD SVG 1.1//EN" "http://www.w3.org/Graphics/SVG/1.1/DTD/svg11.dtd"><svg t="1652023694479" class="icon" viewBox="0 0 1024 1024" version="1.1" xmlns="http://www.w3.org/2000/svg" p-id="2889" xmlns:xlink="http://www.w3.org/1999/xlink" width="200" height="200"><defs><style type="text/css"></style></defs><path d="M184.32 558.08c1.024 9.728 2.56 19.456 4.608 27.648l1.024 3.072v-0.512 0.512l1.024 2.048c2.048 7.168 4.608 14.336 7.168 20.992h0.512l4.608 12.8c2.56 7.68 6.144 14.848 9.216 22.528h0.512l5.632 10.24c11.776 21.504 25.088 41.984 40.96 60.928l1.536 2.048c-0.512-0.512-1.024-1.024-0.512-1.024l25.088 24.576c2.56 2.56 4.096 4.096 5.632 5.12l6.144 5.632 5.12 3.072 16.896 13.312 1.536 1.024h1.536l4.608 3.584c10.752 9.216 19.456 19.968 26.112 33.28 3.072 6.144 6.656 12.288 11.776 17.408 4.608 2.56 9.728 4.096 14.848 3.584H642.048c5.12 0.512 10.24-0.512 14.848-3.072 4.096-5.12 7.68-10.752 10.752-17.408 6.656-13.312 16.384-25.088 28.672-34.304l2.048-1.024 3.584-2.56 14.336-11.264c2.048-3.072 5.12-5.632 8.704-7.168 2.56-3.072 5.632-5.632 8.704-8.704 1.024-1.024 2.048-1.536 3.584-2.56 8.192-6.656 15.36-14.336 23.04-22.528l1.536-1.536c7.68-9.728 14.848-19.456 22.016-29.696 7.168-9.728 13.312-20.48 18.432-31.232l4.096-8.704h1.024c3.584-8.192 7.168-16.384 10.24-24.576l1.536-3.584 1.024-1.024c3.072-8.192 6.144-17.408 9.216-27.136 0-2.56 0-4.096 1.024-6.656 0.512-1.536 1.024-2.56 2.048-3.584l4.096-24.576c0-4.096 0.512-8.704 2.56-12.8 1.024-10.24 1.536-22.016 1.536-33.792 1.024-84.992-33.792-166.4-96.768-224.768-61.44-61.44-145.92-95.232-233.984-93.696C421.888 191.488 338.432 225.28 276.48 287.232 214.528 345.6 179.712 427.008 180.736 512c0 12.288 0.512 24.576 1.536 38.4 0-1.024 0-0.512 0.512 0 1.024 4.096 1.536 5.632 1.536 7.68z m139.264 218.624l1.024 1.024c0-0.512-0.512-1.024-1.024-1.024z" fill="#FFFFFF" p-id="2890"></path><path d="M376.32 847.36c-6.656 0-13.824-2.048-20.48-6.144l-3.584-3.072c-5.632-6.144-10.24-13.312-13.824-20.992-5.632-10.24-13.312-19.968-22.016-27.648l-2.56-1.536-0.512 0.512 0.512-0.512-0.512-0.512-0.512 0.512 0.512-0.512-3.584-2.56L286.72 768l-6.144-5.632c-1.024-1.024-2.56-2.56-5.632-5.12l-25.088-24.576-1.536-2.048c-16.896-20.48-31.232-41.984-43.008-64.512H204.8l-5.632-11.776c-3.584-7.68-6.656-15.872-9.728-23.552l-5.12-12.8c-2.56-7.168-5.12-14.336-7.168-22.016l-0.512-0.512 10.24-4.096-10.24 3.072 4.096-1.536-4.608 1.024 2.048-1.024-2.048 0.512 3.072-1.024-3.072 1.024-1.024-3.072c-2.56-10.24-4.096-20.48-5.12-30.72v-1.024c0-0.512 0-0.512-1.024-4.096l11.776-3.584-12.288 0.512c-1.536-14.336-2.048-27.136-2.048-39.936-1.024-89.088 35.84-175.104 100.864-236.032C331.264 211.456 419.84 175.616 510.976 177.152c90.624-1.536 180.224 34.304 244.736 98.304 65.536 60.928 102.912 146.944 101.376 236.032 0 12.8-0.512 24.576-1.536 35.328v2.56l-1.024 2.56c-1.024 1.536-1.024 3.584-1.024 5.632v1.536l-5.12 29.184-1.536 2.56c-0.512 1.024-0.512 1.024-0.512 2.048v2.56l-0.512 2.56c-3.072 10.24-6.144 19.456-9.728 28.16l-2.048 4.608c-3.072 8.704-6.656 17.408-10.752 25.6l-4.096 9.216h-1.024c-5.632 11.264-12.288 22.528-19.968 33.28-7.168 10.752-14.336 20.48-22.528 30.208l-2.56 2.56c-7.168 8.192-15.36 15.872-24.064 23.04l-2.048 1.536c-0.512 0.512-1.024 0.512-1.536 1.024-2.048 2.048-4.608 4.096-6.656 6.656l-2.56 2.56-3.072 1.536c-1.024 0.512-1.536 1.024-2.048 1.536l-3.072 3.584-20.992 15.36c-9.728 7.168-17.92 16.896-23.04 27.648-3.072 7.68-7.68 14.848-12.8 20.992l-3.584 3.072c-7.168 4.608-16.384 6.656-25.088 5.632H382.976c-4.096 1.024-5.632 1.536-6.656 1.536z m-2.048-31.744c1.024 0.512 2.048 0.512 3.072 0.512h268.8c2.56-3.072 4.608-6.656 6.144-11.264 8.192-16.384 19.456-30.208 33.792-40.96l5.12-3.584 12.8-9.728c3.072-3.584 6.656-6.656 10.24-8.704 2.56-2.56 5.12-5.12 8.192-7.68 1.536-1.536 3.072-2.56 4.608-3.072 7.168-6.144 13.824-12.8 20.48-19.968l2.048-2.048c6.656-8.192 13.312-17.408 19.968-27.648 6.656-9.216 12.288-19.456 17.408-29.184l9.216-17.408c2.048-4.608 4.096-9.216 5.632-14.336l3.584-8.192c2.56-6.656 4.608-13.312 7.168-20.48 0-3.072 1.024-6.144 2.048-9.216 0.512-1.536 1.024-2.56 1.536-4.096l3.584-20.48c0-5.12 1.024-10.24 2.56-15.36 0.512-9.216 1.024-18.944 1.024-30.208 1.024-80.384-32.768-158.208-92.16-213.504-58.88-58.368-139.776-91.136-222.72-89.6C425.472 207.872 345.088 240.64 286.72 299.008c-58.88 55.296-92.16 133.12-91.136 213.504 0 11.264 0.512 22.528 1.536 34.304 1.024 4.096 2.048 6.656 2.048 10.24 1.024 8.704 2.56 17.408 4.608 25.6l1.024 3.072c1.536 4.608 2.56 8.704 4.096 12.8l8.192 21.504c2.048 6.144 4.608 11.776 7.168 17.408l7.168 13.312c10.752 20.48 24.064 39.936 38.4 57.856l1.024 1.024 25.088 24.064 5.12 5.12 5.12 5.12 3.584 2.56 25.6 19.456c12.288 10.24 22.016 23.04 29.696 37.888 3.584 4.096 6.144 8.192 9.216 11.776zM510.464 20.48h4.608c8.704 0 15.872 7.168 15.872 15.872v76.8c0 8.704-7.168 15.872-15.872 15.872h-4.608c-8.704 0-15.872-7.168-15.872-15.872v-76.8C494.592 27.648 501.76 20.48 510.464 20.48zM910.336 160.256l3.584 3.584c6.144 6.144 6.144 15.872 0 22.016L859.136 240.64c-6.144 6.144-15.872 6.144-22.016 0l-3.584-3.584c-6.144-6.144-6.144-15.872 0-22.016l54.784-54.784c6.144-6.144 15.872-6.144 22.016 0zM111.616 163.84l3.584-3.584c6.144-6.144 15.872-6.144 22.016 0L192 215.04c6.144 6.144 6.144 15.872 0 22.016l-3.584 3.584c-6.144 6.144-15.872 6.144-22.016 0L111.616 185.856c-6.144-6.144-6.144-15.872 0-22.016z" fill="#3B5EED" p-id="2891"></path><path d="M354.816 351.744c40.96-42.496 96.768-65.536 155.136-64.512 58.368-1.024 114.688 22.528 155.648 64.512 41.984 39.936 65.536 96.256 64.512 155.136 0 8.192-0.512 16.896-1.024 25.088-1.024 1.536-1.536 3.584-1.024 5.632l-3.584 20.48c-1.536 0-1.024 2.048-1.024 3.584-2.56 7.68-4.608 14.336-6.656 20.48v1.024l-1.024 1.024c-2.56 7.168-5.632 14.848-9.216 21.504 0 1.024-0.512 1.024-1.024 1.024-3.584 7.68-7.68 14.848-12.8 21.504-4.608 6.656-9.216 13.824-14.848 20.48l-0.512 0.512-0.512 0.512c-5.12 5.632-10.24 11.264-15.872 15.872-0.512 0.512-1.024 0.512-1.536 1.024-2.56 2.048-4.608 4.608-6.144 6.656-1.536 0-3.072 1.024-3.584 2.048l-10.752 8.704-2.048 1.536-1.536 1.024c-6.144 4.608-11.264 11.264-14.848 18.432-2.048 5.632-5.12 10.24-9.216 14.848-5.12 3.584-11.264 5.12-17.408 4.608H428.032c-6.144 0.512-12.288-1.024-17.408-4.608-4.096-4.608-7.168-9.216-9.728-14.848-3.584-7.168-8.192-13.312-14.336-18.432-1.024 0-1.536-0.512-2.56-1.024l-1.536-1.536-10.752-8.704-3.584-2.048-4.608-4.608-3.584-3.584-15.872-15.872-0.512-0.512-0.512-0.512c-10.24-13.312-19.456-27.136-27.648-42.496h-0.512l-0.512-0.512v-0.512c-3.584-7.168-6.656-14.336-9.216-21.504h-0.512l-0.512-0.512V581.12c-2.048-6.144-4.608-12.8-6.656-20.48-0.512-0.512-0.512-1.024-0.512-1.536l-0.512-1.536c-1.536-6.656-2.56-13.824-3.584-20.48 0-1.536-1.024-4.096-1.024-5.632-1.024-8.192-1.024-16.896-1.024-25.088-0.512-57.856 22.528-114.176 64-154.624z" fill="#C6D1FF" p-id="2892"></path><path d="M408.576 899.072h203.776c4.096 0 7.68 3.584 7.68 7.68s-3.584 7.68-7.68 7.68H408.576c-4.096 0-7.68-3.584-7.68-7.68-0.512-4.096 3.072-7.68 7.68-7.68z" fill="#D8D8D8" p-id="2893"></path><path d="M612.352 930.304H408.576c-12.8 0-23.552-10.752-23.552-23.552s10.752-23.552 23.552-23.552h203.776c12.8 0 23.552 10.752 23.552 23.552s-10.752 23.552-23.552 23.552z" fill="#3B5EED" p-id="2894"></path><path d="M439.808 962.048h141.312c4.096 0 7.68 3.584 7.68 7.68s-3.584 7.68-7.68 7.68H439.808c-4.096 0-7.68-3.584-7.68-7.68s3.072-7.68 7.68-7.68z" fill="#D8D8D8" p-id="2895"></path><path d="M581.12 993.28H439.808c-12.8 0-23.552-10.752-23.552-23.552s10.752-23.552 23.552-23.552h141.312c12.8 0 23.552 10.752 23.552 23.552s-10.752 23.552-23.552 23.552z" fill="#3B5EED" p-id="2896"></path></svg>